<?xml version="1.0" encoding="UTF-8" standalone="no"?>
<!DOCTYPE svg PUBLIC "-//W3C//DTD SVG 1.1//EN" "http://www.w3.org/Graphics/SVG/1.1/DTD/svg11.dtd">
<svg id="img" version="1.1" fill="#000" xmlns="http://www.w3.org/2000/svg" xmlns:xlink="http://www.w3.org/1999/xlink" preserveAspectRatio="xMidYMid meet" viewBox="0 0 640 640" width="490" height="490">
	<defs>
		<path d="M326.33 548.25C314.9 548.25 305.63 557.51 305.63 568.94C305.63 580.37 314.9 589.64 326.33 589.64C337.76 589.64 347.02 580.37 347.02 568.94C347.02 557.51 337.76 548.25 326.33 548.25Z" id="d3VoV4eLAV">
		</path>
		<path d="M326.33 59.85C236.75 59.85 163.88 132.73 163.88 222.31C163.88 233.74 173.14 243 184.57 243C196 243 205.27 233.74 205.27 222.31C205.27 155.55 259.57 101.24 326.33 101.24C393.08 101.24 447.39 155.55 447.39 222.31C447.39 222.67 447.4 223.04 447.42 223.41C447 271.58 418.21 314.82 373.83 333.77C332.4 351.46 305.63 392.41 305.63 438.11C305.63 442.92 305.63 481.36 305.63 486.16C305.63 497.59 314.9 506.86 326.33 506.86C337.76 506.86 347.02 497.59 347.02 486.16C347.02 481.36 347.02 442.92 347.02 438.11C347.02 409.02 363.92 383 390.08 371.84C450.07 346.22 488.83 287.53 488.81 222.3C488.81 221.88 488.8 221.46 488.78 221.04C488.09 132.04 415.48 59.85 326.33 59.85Z" id="b5Ft2kvSP">
		</path>
	</defs>
	<g>
		<g>
			<g>
				<use xlink:href="#a3D2h9XCEx" opacity="1" fill="#f36b6b" fill-opacity="1">
				</use>
			</g>
			<g>
				<use xlink:href="#d3VoV4eLAV" opacity="1" fill="#ffffff" fill-opacity="1">
				</use>
				<g>
					<use xlink:href="#d3VoV4eLAV" opacity="1" fill-opacity="0" stroke="#000000" stroke-width="1" stroke-opacity="0">
					</use>
				</g>
			</g>
			<g>
				<use xlink:href="#b5Ft2kvSP" opacity="1" fill="#ffffff" fill-opacity="1">
				</use>
				<g>
					<use xlink:href="#b5Ft2kvSP" opacity="1" fill-opacity="0" stroke="#000000" stroke-width="1" stroke-opacity="0">
					</use>
				</g>
			</g>
		</g>
	</g>
</svg>
